{"asset":{"generator":"FBX2glTF v0.9.7","version":"2.0"},"scene":0,"buffers":[{"uri":"bush.bin","byteLength":91800}],"bufferViews":[{"buffer":0,"byteLength":5400,"byteOffset":0,"target":34963},{"buffer":0,"byteLength":21600,"byteOffset":5400,"target":34962},{"buffer":0,"byteLength":21600,"byteOffset":27000,"target":34962},{"buffer":0,"byteLength":28800,"byteOffset":48600,"target":34962},{"buffer":0,"byteLength":14400,"byteOffset":77400,"target":34962}],"scenes":[{"name":"Root Scene","nodes":[0]}],"accessors":[{"componentType":5123,"type":"SCALAR","count":2700,"bufferView":0,"byteOffset":0},{"componentType":5126,"type":"VEC3","count":1800,"bufferView":1,"byteOffset":0,"min":[-0.923476159572601,-0.234694704413414,-0.9743891954422],"max":[0.991368532180786,1.34709084033966,0.990751624107361]},{"componentType":5126,"type":"VEC3","count":1800,"bufferView":2,"byteOffset":0},{"componentType":5126,"type":"VEC4","count":1800,"bufferView":3,"byteOffset":0},{"componentType":5126,"type":"VEC2","count":1800,"bufferView":4,"byteOffset":0}],"images":[{"name":"Leaves_TwistedTree_C.png","uri":"textures/5aaf3978744b7c78.png"}],"samplers":[{}],"textures":[{"name":"base_color_texture","sampler":0,"source":0}],"materials":[{"name":"Leaves_TwistedTree","alphaMode":"BLEND","extras":{"fromFBX":{"shadingModel":"Phong","isTruePBR":false}},"pbrMetallicRoughness":{"baseColorTexture":{"index":0,"texCoord":0},"baseColorFactor":[1.0,1.0,1.0,1.0],"metallicFactor":0.400000005960464,"roughnessFactor":1.0}}],"meshes":[{"name":"Bush_Common","primitives":[{"material":0,"mode":4,"attributes":{"COLOR_0":3,"NORMAL":2,"POSITION":1,"TEXCOORD_0":4},"indices":0}]}],"nodes":[{"name":"RootNode","translation":[0.0,0.0,0.0],"rotation":[0.0,0.0,0.0,1.0],"scale":[1.0,1.0,1.0],"children":[1]},{"name":"Bush_Common","translation":[0.0,0.0,0.0],"rotation":[8.14603353660459e-08,0.0,0.0,1.0],"scale":[1.0,1.0,1.0],"mesh":0}]}