{"asset":{"generator":"FBX2glTF v0.9.7","version":"2.0"},"scene":0,"buffers":[{"uri":"bush_flowers.bin","byteLength":118800}],"bufferViews":[{"buffer":0,"byteLength":5400,"byteOffset":0,"target":34963},{"buffer":0,"byteLength":21600,"byteOffset":5400,"target":34962},{"buffer":0,"byteLength":21600,"byteOffset":27000,"target":34962},{"buffer":0,"byteLength":28800,"byteOffset":48600,"target":34962},{"buffer":0,"byteLength":14400,"byteOffset":77400,"target":34962},{"buffer":0,"byteLength":2808,"byteOffset":91800,"target":34963},{"buffer":0,"byteLength":6048,"byteOffset":94608,"target":34962},{"buffer":0,"byteLength":6048,"byteOffset":100656,"target":34962},{"buffer":0,"byteLength":8064,"byteOffset":106704,"target":34962},{"buffer":0,"byteLength":4032,"byteOffset":114768,"target":34962}],"scenes":[{"name":"Root Scene","nodes":[0]}],"accessors":[{"componentType":5123,"type":"SCALAR","count":2700,"bufferView":0,"byteOffset":0},{"componentType":5126,"type":"VEC3","count":1800,"bufferView":1,"byteOffset":0,"min":[-0.923476159572601,-0.234694704413414,-0.9743891954422],"max":[0.991368532180786,1.34709084033966,0.990751624107361]},{"componentType":5126,"type":"VEC3","count":1800,"bufferView":2,"byteOffset":0},{"componentType":5126,"type":"VEC4","count":1800,"bufferView":3,"byteOffset":0},{"componentType":5126,"type":"VEC2","count":1800,"bufferView":4,"byteOffset":0},{"componentType":5123,"type":"SCALAR","count":1404,"bufferView":5,"byteOffset":0},{"componentType":5126,"type":"VEC3","count":504,"bufferView":6,"byteOffset":0,"min":[-0.745398342609406,0.258684188127518,-0.925185143947601],"max":[0.971813559532166,1.32853782176971,0.98771071434021]},{"componentType":5126,"type":"VEC3","count":504,"bufferView":7,"byteOffset":0},{"componentType":5126,"type":"VEC4","count":504,"bufferView":8,"byteOffset":0},{"componentType":5126,"type":"VEC2","count":504,"bufferView":9,"byteOffset":0}],"images":[{"name":"Leaves_NormalTree_C.png","uri":"textures/8e4474241568d60f.png"},{"name":"Flowers.png","uri":"textures/25b432a0a55be20e.png"}],"samplers":[{}],"textures":[{"name":"base_color_texture","sampler":0,"source":0},{"name":"base_color_texture","sampler":0,"source":1}],"materials":[{"name":"Leaves_NormalTree","alphaMode":"BLEND","extras":{"fromFBX":{"shadingModel":"Phong","isTruePBR":false}},"pbrMetallicRoughness":{"baseColorTexture":{"index":0,"texCoord":0},"baseColorFactor":[1.0,1.0,1.0,1.0],"metallicFactor":0.400000005960464,"roughnessFactor":1.0}},{"name":"Flowers","alphaMode":"BLEND","extras":{"fromFBX":{"shadingModel":"Phong","isTruePBR":false}},"pbrMetallicRoughness":{"baseColorTexture":{"index":1,"texCoord":0},"baseColorFactor":[1.0,1.0,1.0,1.0],"metallicFactor":0.400000005960464,"roughnessFactor":1.0}}],"meshes":[{"name":"Bush_Common_Flowers","primitives":[{"material":0,"mode":4,"attributes":{"COLOR_0":3,"NORMAL":2,"POSITION":1,"TEXCOORD_0":4},"indices":0},{"material":1,"mode":4,"attributes":{"COLOR_0":8,"NORMAL":7,"POSITION":6,"TEXCOORD_0":9},"indices":5}]}],"nodes":[{"name":"RootNode","translation":[0.0,0.0,0.0],"rotation":[0.0,0.0,0.0,1.0],"scale":[1.0,1.0,1.0],"children":[1]},{"name":"Bush_Common_Flowers","translation":[0.0,0.0,0.0],"rotation":[8.14603353660459e-08,0.0,0.0,1.0],"scale":[1.0,1.0,1.0],"mesh":0}]}