{"asset":{"generator":"FBX2glTF v0.9.7","version":"2.0"},"scene":0,"buffers":[{"uri":"flowers_b.bin","byteLength":72636}],"bufferViews":[{"buffer":0,"byteLength":2940,"byteOffset":0,"target":34963},{"buffer":0,"byteLength":3624,"byteOffset":2940,"target":34962},{"buffer":0,"byteLength":3624,"byteOffset":6564,"target":34962},{"buffer":0,"byteLength":4832,"byteOffset":10188,"target":34962},{"buffer":0,"byteLength":2416,"byteOffset":15020,"target":34962},{"buffer":0,"byteLength":7200,"byteOffset":17436,"target":34963},{"buffer":0,"byteLength":12000,"byteOffset":24636,"target":34962},{"buffer":0,"byteLength":12000,"byteOffset":36636,"target":34962},{"buffer":0,"byteLength":16000,"byteOffset":48636,"target":34962},{"buffer":0,"byteLength":8000,"byteOffset":64636,"target":34962}],"scenes":[{"name":"Root Scene","nodes":[0]}],"accessors":[{"componentType":5123,"type":"SCALAR","count":1470,"bufferView":0,"byteOffset":0},{"componentType":5126,"type":"VEC3","count":302,"bufferView":1,"byteOffset":0,"min":[-0.79016125202179,-0.056997612118721,-0.618132293224335],"max":[0.625536561012268,2.29434967041016,0.527914106845856]},{"componentType":5126,"type":"VEC3","count":302,"bufferView":2,"byteOffset":0},{"componentType":5126,"type":"VEC4","count":302,"bufferView":3,"byteOffset":0},{"componentType":5126,"type":"VEC2","count":302,"bufferView":4,"byteOffset":0},{"componentType":5123,"type":"SCALAR","count":3600,"bufferView":5,"byteOffset":0},{"componentType":5126,"type":"VEC3","count":1000,"bufferView":6,"byteOffset":0,"min":[-0.931385695934296,1.1220235824585,-0.636150419712067],"max":[0.849139988422394,2.42977070808411,0.731378316879272]},{"componentType":5126,"type":"VEC3","count":1000,"bufferView":7,"byteOffset":0},{"componentType":5126,"type":"VEC4","count":1000,"bufferView":8,"byteOffset":0},{"componentType":5126,"type":"VEC2","count":1000,"bufferView":9,"byteOffset":0}],"images":[{"name":"Leaves.png","uri":"textures/723f552b016dbf25.png"},{"name":"Flowers.png","uri":"textures/25b432a0a55be20e.png"}],"samplers":[{}],"textures":[{"name":"base_color_texture","sampler":0,"source":0},{"name":"base_color_texture","sampler":0,"source":1}],"materials":[{"name":"Leaves","alphaMode":"BLEND","extras":{"fromFBX":{"shadingModel":"Phong","isTruePBR":false}},"pbrMetallicRoughness":{"baseColorTexture":{"index":0,"texCoord":0},"baseColorFactor":[1.0,1.0,1.0,1.0],"metallicFactor":0.400000005960464,"roughnessFactor":1.0}},{"name":"Flowers","alphaMode":"BLEND","extras":{"fromFBX":{"shadingModel":"Phong","isTruePBR":false}},"pbrMetallicRoughness":{"baseColorTexture":{"index":1,"texCoord":0},"baseColorFactor":[1.0,1.0,1.0,1.0],"metallicFactor":0.400000005960464,"roughnessFactor":1.0}}],"meshes":[{"name":"Flower_4_Group","primitives":[{"material":0,"mode":4,"attributes":{"COLOR_0":3,"NORMAL":2,"POSITION":1,"TEXCOORD_0":4},"indices":0},{"material":1,"mode":4,"attributes":{"COLOR_0":8,"NORMAL":7,"POSITION":6,"TEXCOORD_0":9},"indices":5}]}],"nodes":[{"name":"RootNode","translation":[0.0,0.0,0.0],"rotation":[0.0,0.0,0.0,1.0],"scale":[1.0,1.0,1.0],"children":[1]},{"name":"Flower_4_Group","translation":[0.0,0.0,0.0],"rotation":[8.14603353660459e-08,0.0,0.0,1.0],"scale":[1.0,1.0,1.0],"mesh":0}]}