{"asset":{"generator":"FBX2glTF v0.9.7","version":"2.0"},"scene":0,"buffers":[{"uri":"flowers_a.bin","byteLength":32420}],"bufferViews":[{"buffer":0,"byteLength":270,"byteOffset":0,"target":34963},{"buffer":0,"byteLength":576,"byteOffset":272,"target":34962},{"buffer":0,"byteLength":576,"byteOffset":848,"target":34962},{"buffer":0,"byteLength":768,"byteOffset":1424,"target":34962},{"buffer":0,"byteLength":384,"byteOffset":2192,"target":34962},{"buffer":0,"byteLength":4260,"byteOffset":2576,"target":34963},{"buffer":0,"byteLength":6396,"byteOffset":6836,"target":34962},{"buffer":0,"byteLength":6396,"byteOffset":13232,"target":34962},{"buffer":0,"byteLength":8528,"byteOffset":19628,"target":34962},{"buffer":0,"byteLength":4264,"byteOffset":28156,"target":34962}],"scenes":[{"name":"Root Scene","nodes":[0]}],"accessors":[{"componentType":5123,"type":"SCALAR","count":135,"bufferView":0,"byteOffset":0},{"componentType":5126,"type":"VEC3","count":48,"bufferView":1,"byteOffset":0,"min":[-0.613601326942444,1.45164620876312,-0.801761746406555],"max":[0.874875247478485,2.02025151252747,0.789365291595459]},{"componentType":5126,"type":"VEC3","count":48,"bufferView":2,"byteOffset":0},{"componentType":5126,"type":"VEC4","count":48,"bufferView":3,"byteOffset":0},{"componentType":5126,"type":"VEC2","count":48,"bufferView":4,"byteOffset":0},{"componentType":5123,"type":"SCALAR","count":2130,"bufferView":5,"byteOffset":0},{"componentType":5126,"type":"VEC3","count":533,"bufferView":6,"byteOffset":0,"min":[-0.568230926990509,-0.0345835909247398,-0.54273533821106],"max":[0.788301706314087,1.77425992488861,0.704555869102478]},{"componentType":5126,"type":"VEC3","count":533,"bufferView":7,"byteOffset":0},{"componentType":5126,"type":"VEC4","count":533,"bufferView":8,"byteOffset":0},{"componentType":5126,"type":"VEC2","count":533,"bufferView":9,"byteOffset":0}],"images":[{"name":"Flowers.png","uri":"textures/25b432a0a55be20e.png"},{"name":"Leaves.png","uri":"textures/723f552b016dbf25.png"}],"samplers":[{}],"textures":[{"name":"base_color_texture","sampler":0,"source":0},{"name":"base_color_texture","sampler":0,"source":1}],"materials":[{"name":"Flowers","alphaMode":"BLEND","extras":{"fromFBX":{"shadingModel":"Phong","isTruePBR":false}},"pbrMetallicRoughness":{"baseColorTexture":{"index":0,"texCoord":0},"baseColorFactor":[1.0,1.0,1.0,1.0],"metallicFactor":0.400000005960464,"roughnessFactor":1.0}},{"name":"Leaves","alphaMode":"BLEND","extras":{"fromFBX":{"shadingModel":"Phong","isTruePBR":false}},"pbrMetallicRoughness":{"baseColorTexture":{"index":1,"texCoord":0},"baseColorFactor":[1.0,1.0,1.0,1.0],"metallicFactor":0.400000005960464,"roughnessFactor":1.0}}],"meshes":[{"name":"Flower_3_Group","primitives":[{"material":0,"mode":4,"attributes":{"COLOR_0":3,"NORMAL":2,"POSITION":1,"TEXCOORD_0":4},"indices":0},{"material":1,"mode":4,"attributes":{"COLOR_0":8,"NORMAL":7,"POSITION":6,"TEXCOORD_0":9},"indices":5}]}],"nodes":[{"name":"RootNode","translation":[0.0,0.0,0.0],"rotation":[0.0,0.0,0.0,1.0],"scale":[1.0,1.0,1.0],"children":[1]},{"name":"Flower_3_Group","translation":[0.0,0.0,0.0],"rotation":[8.14603353660459e-08,0.0,0.0,1.0],"scale":[1.0,1.0,1.0],"mesh":0}]}