{"asset":{"generator":"FBX2glTF v0.9.7","version":"2.0"},"scene":0,"buffers":[{"uri":"grass_fine.bin","byteLength":29892}],"bufferViews":[{"buffer":0,"byteLength":3732,"byteOffset":0,"target":34963},{"buffer":0,"byteLength":6540,"byteOffset":3732,"target":34962},{"buffer":0,"byteLength":6540,"byteOffset":10272,"target":34962},{"buffer":0,"byteLength":8720,"byteOffset":16812,"target":34962},{"buffer":0,"byteLength":4360,"byteOffset":25532,"target":34962}],"scenes":[{"name":"Root Scene","nodes":[0]}],"accessors":[{"componentType":5123,"type":"SCALAR","count":1866,"bufferView":0,"byteOffset":0},{"componentType":5126,"type":"VEC3","count":545,"bufferView":1,"byteOffset":0,"min":[-0.739244699478149,-0.0360518172383308,-0.818590581417084],"max":[0.800827920436859,1.63575053215027,0.775125324726105]},{"componentType":5126,"type":"VEC3","count":545,"bufferView":2,"byteOffset":0},{"componentType":5126,"type":"VEC4","count":545,"bufferView":3,"byteOffset":0},{"componentType":5126,"type":"VEC2","count":545,"bufferView":4,"byteOffset":0}],"images":[{"name":"Grass.png","uri":"textures/711c0497931c52a6.png"}],"samplers":[{}],"textures":[{"name":"base_color_texture","sampler":0,"source":0}],"materials":[{"name":"Grass","alphaMode":"OPAQUE","extras":{"fromFBX":{"shadingModel":"Phong","isTruePBR":false}},"pbrMetallicRoughness":{"baseColorTexture":{"index":0,"texCoord":0},"baseColorFactor":[1.0,1.0,1.0,1.0],"metallicFactor":0.400000005960464,"roughnessFactor":1.0}}],"meshes":[{"name":"Grass_Wispy_Tall","primitives":[{"material":0,"mode":4,"attributes":{"COLOR_0":3,"NORMAL":2,"POSITION":1,"TEXCOORD_0":4},"indices":0}]}],"nodes":[{"name":"RootNode","translation":[0.0,0.0,0.0],"rotation":[0.0,0.0,0.0,1.0],"scale":[1.0,1.0,1.0],"children":[1]},{"name":"Grass_Wispy_Tall","translation":[0.0,0.0,0.0],"rotation":[8.14603353660459e-08,0.0,0.0,1.0],"scale":[1.0,1.0,1.0],"mesh":0}]}