{"asset":{"generator":"FBX2glTF v0.9.7","version":"2.0"},"scene":0,"buffers":[{"uri":"grass.bin","byteLength":8276}],"bufferViews":[{"buffer":0,"byteLength":930,"byteOffset":0,"target":34963},{"buffer":0,"byteLength":1836,"byteOffset":932,"target":34962},{"buffer":0,"byteLength":1836,"byteOffset":2768,"target":34962},{"buffer":0,"byteLength":2448,"byteOffset":4604,"target":34962},{"buffer":0,"byteLength":1224,"byteOffset":7052,"target":34962}],"scenes":[{"name":"Root Scene","nodes":[0]}],"accessors":[{"componentType":5123,"type":"SCALAR","count":465,"bufferView":0,"byteOffset":0},{"componentType":5126,"type":"VEC3","count":153,"bufferView":1,"byteOffset":0,"min":[-0.355642378330231,-0.0223852153867483,-0.479378283023834],"max":[0.283228069543839,1.31171822547913,0.257887214422226]},{"componentType":5126,"type":"VEC3","count":153,"bufferView":2,"byteOffset":0},{"componentType":5126,"type":"VEC4","count":153,"bufferView":3,"byteOffset":0},{"componentType":5126,"type":"VEC2","count":153,"bufferView":4,"byteOffset":0}],"images":[{"name":"Grass.png","uri":"textures/711c0497931c52a6.png"}],"samplers":[{}],"textures":[{"name":"base_color_texture","sampler":0,"source":0}],"materials":[{"name":"Grass","alphaMode":"OPAQUE","extras":{"fromFBX":{"shadingModel":"Phong","isTruePBR":false}},"pbrMetallicRoughness":{"baseColorTexture":{"index":0,"texCoord":0},"baseColorFactor":[1.0,1.0,1.0,1.0],"metallicFactor":0.400000005960464,"roughnessFactor":1.0}}],"meshes":[{"name":"Grass_Common_Short","primitives":[{"material":0,"mode":4,"attributes":{"COLOR_0":3,"NORMAL":2,"POSITION":1,"TEXCOORD_0":4},"indices":0}]}],"nodes":[{"name":"RootNode","translation":[0.0,0.0,0.0],"rotation":[0.0,0.0,0.0,1.0],"scale":[1.0,1.0,1.0],"children":[1]},{"name":"Grass_Common_Short","translation":[0.0,0.0,0.0],"rotation":[8.14603353660459e-08,0.0,0.0,1.0],"scale":[1.0,1.0,1.0],"mesh":0}]}