{"asset":{"generator":"FBX2glTF v0.9.7","version":"2.0"},"scene":0,"buffers":[{"uri":"grass_wispy.bin","byteLength":25668}],"bufferViews":[{"buffer":0,"byteLength":2964,"byteOffset":0,"target":34963},{"buffer":0,"byteLength":5676,"byteOffset":2964,"target":34962},{"buffer":0,"byteLength":5676,"byteOffset":8640,"target":34962},{"buffer":0,"byteLength":7568,"byteOffset":14316,"target":34962},{"buffer":0,"byteLength":3784,"byteOffset":21884,"target":34962}],"scenes":[{"name":"Root Scene","nodes":[0]}],"accessors":[{"componentType":5123,"type":"SCALAR","count":1482,"bufferView":0,"byteOffset":0},{"componentType":5126,"type":"VEC3","count":473,"bufferView":1,"byteOffset":0,"min":[-0.728043496608734,-0.0857500806450844,-0.582810997962952],"max":[0.594142436981201,0.986096799373627,0.626933336257935]},{"componentType":5126,"type":"VEC3","count":473,"bufferView":2,"byteOffset":0},{"componentType":5126,"type":"VEC4","count":473,"bufferView":3,"byteOffset":0},{"componentType":5126,"type":"VEC2","count":473,"bufferView":4,"byteOffset":0}],"images":[{"name":"Grass.png","uri":"textures/711c0497931c52a6.png"}],"samplers":[{}],"textures":[{"name":"base_color_texture","sampler":0,"source":0}],"materials":[{"name":"Grass","alphaMode":"OPAQUE","extras":{"fromFBX":{"shadingModel":"Phong","isTruePBR":false}},"pbrMetallicRoughness":{"baseColorTexture":{"index":0,"texCoord":0},"baseColorFactor":[1.0,1.0,1.0,1.0],"metallicFactor":0.400000005960464,"roughnessFactor":1.0}}],"meshes":[{"name":"Grass_Wispy_Short","primitives":[{"material":0,"mode":4,"attributes":{"COLOR_0":3,"NORMAL":2,"POSITION":1,"TEXCOORD_0":4},"indices":0}]}],"nodes":[{"name":"RootNode","translation":[0.0,0.0,0.0],"rotation":[0.0,0.0,0.0,1.0],"scale":[1.0,1.0,1.0],"children":[1]},{"name":"Grass_Wispy_Short","translation":[0.0,0.0,0.0],"rotation":[8.14603353660459e-08,0.0,0.0,1.0],"scale":[1.0,1.0,1.0],"mesh":0}]}