{"asset":{"generator":"FBX2glTF v0.9.7","version":"2.0"},"scene":0,"buffers":[{"uri":"rock_b.bin","byteLength":13284}],"bufferViews":[{"buffer":0,"byteLength":2052,"byteOffset":0,"target":34963},{"buffer":0,"byteLength":4212,"byteOffset":2052,"target":34962},{"buffer":0,"byteLength":4212,"byteOffset":6264,"target":34962},{"buffer":0,"byteLength":2808,"byteOffset":10476,"target":34962}],"scenes":[{"name":"Root Scene","nodes":[0]}],"accessors":[{"componentType":5123,"type":"SCALAR","count":1026,"bufferView":0,"byteOffset":0},{"componentType":5126,"type":"VEC3","count":351,"bufferView":1,"byteOffset":0,"min":[-1.72728729248047,-0.271131336688995,-1.14988327026367],"max":[1.49786114692688,1.98866510391235,1.83925318717957]},{"componentType":5126,"type":"VEC3","count":351,"bufferView":2,"byteOffset":0},{"componentType":5126,"type":"VEC2","count":351,"bufferView":3,"byteOffset":0}],"images":[{"name":"Rocks_Diffuse.png","uri":"textures/fe12c2217ff4eb86.png"}],"samplers":[{}],"textures":[{"name":"base_color_texture","sampler":0,"source":0}],"materials":[{"name":"Rocks","alphaMode":"OPAQUE","extras":{"fromFBX":{"shadingModel":"Phong","isTruePBR":false}},"pbrMetallicRoughness":{"baseColorTexture":{"index":0,"texCoord":0},"baseColorFactor":[1.0,1.0,1.0,1.0],"metallicFactor":0.400000005960464,"roughnessFactor":1.0}}],"meshes":[{"name":"Rock_Medium_1","primitives":[{"material":0,"mode":4,"attributes":{"NORMAL":2,"POSITION":1,"TEXCOORD_0":3},"indices":0}]}],"nodes":[{"name":"RootNode","translation":[0.0,0.0,0.0],"rotation":[0.0,0.0,0.0,1.0],"scale":[1.0,1.0,1.0],"children":[1]},{"name":"Rock_Medium_1","translation":[0.0,0.0,0.0],"rotation":[-9.73535918546986e-08,-0.0,0.0,1.0],"scale":[1.0,1.0,1.0],"mesh":0}]}