{"asset":{"generator":"FBX2glTF v0.9.7","version":"2.0"},"scene":0,"buffers":[{"uri":"rock_a.bin","byteLength":9432}],"bufferViews":[{"buffer":0,"byteLength":1464,"byteOffset":0,"target":34963},{"buffer":0,"byteLength":2988,"byteOffset":1464,"target":34962},{"buffer":0,"byteLength":2988,"byteOffset":4452,"target":34962},{"buffer":0,"byteLength":1992,"byteOffset":7440,"target":34962}],"scenes":[{"name":"Root Scene","nodes":[0]}],"accessors":[{"componentType":5123,"type":"SCALAR","count":732,"bufferView":0,"byteOffset":0},{"componentType":5126,"type":"VEC3","count":249,"bufferView":1,"byteOffset":0,"min":[-1.71364176273346,-0.0508415885269642,-1.15912532806396],"max":[1.33511853218079,1.84813332557678,1.3199462890625]},{"componentType":5126,"type":"VEC3","count":249,"bufferView":2,"byteOffset":0},{"componentType":5126,"type":"VEC2","count":249,"bufferView":3,"byteOffset":0}],"images":[{"name":"Rocks_Diffuse.png","uri":"textures/fe12c2217ff4eb86.png"}],"samplers":[{}],"textures":[{"name":"base_color_texture","sampler":0,"source":0}],"materials":[{"name":"Rocks","alphaMode":"OPAQUE","extras":{"fromFBX":{"shadingModel":"Phong","isTruePBR":false}},"pbrMetallicRoughness":{"baseColorTexture":{"index":0,"texCoord":0},"baseColorFactor":[1.0,1.0,1.0,1.0],"metallicFactor":0.400000005960464,"roughnessFactor":1.0}}],"meshes":[{"name":"Rock_Medium_2","primitives":[{"material":0,"mode":4,"attributes":{"NORMAL":2,"POSITION":1,"TEXCOORD_0":3},"indices":0}]}],"nodes":[{"name":"RootNode","translation":[0.0,0.0,0.0],"rotation":[0.0,0.0,0.0,1.0],"scale":[1.0,1.0,1.0],"children":[1]},{"name":"Rock_Medium_2","translation":[0.0,0.0,0.0],"rotation":[-9.73535918546986e-08,-0.0,0.0,1.0],"scale":[1.0,1.0,1.0],"mesh":0}]}