{"asset":{"generator":"FBX2glTF v0.9.7","version":"2.0"},"scene":0,"buffers":[{"uri":"tree_broadleaf.bin","byteLength":201180}],"bufferViews":[{"buffer":0,"byteLength":19680,"byteOffset":0,"target":34963},{"buffer":0,"byteLength":25332,"byteOffset":19680,"target":34962},{"buffer":0,"byteLength":25332,"byteOffset":45012,"target":34962},{"buffer":0,"byteLength":33776,"byteOffset":70344,"target":34962},{"buffer":0,"byteLength":16888,"byteOffset":104120,"target":34962},{"buffer":0,"byteLength":4716,"byteOffset":121008,"target":34963},{"buffer":0,"byteLength":18864,"byteOffset":125724,"target":34962},{"buffer":0,"byteLength":18864,"byteOffset":144588,"target":34962},{"buffer":0,"byteLength":25152,"byteOffset":163452,"target":34962},{"buffer":0,"byteLength":12576,"byteOffset":188604,"target":34962}],"scenes":[{"name":"Root Scene","nodes":[0]}],"accessors":[{"componentType":5123,"type":"SCALAR","count":9840,"bufferView":0,"byteOffset":0},{"componentType":5126,"type":"VEC3","count":2111,"bufferView":1,"byteOffset":0,"min":[-1.16736686229706,-0.242771998047829,-1.212726354599],"max":[1.2364194393158,7.95744848251343,1.05429983139038]},{"componentType":5126,"type":"VEC3","count":2111,"bufferView":2,"byteOffset":0},{"componentType":5126,"type":"VEC4","count":2111,"bufferView":3,"byteOffset":0},{"componentType":5126,"type":"VEC2","count":2111,"bufferView":4,"byteOffset":0},{"componentType":5123,"type":"SCALAR","count":2358,"bufferView":5,"byteOffset":0},{"componentType":5126,"type":"VEC3","count":1572,"bufferView":6,"byteOffset":0,"min":[-1.79709529876709,5.80851745605469,-2.0796103477478],"max":[2.02843046188354,9.1956090927124,1.6757630109787]},{"componentType":5126,"type":"VEC3","count":1572,"bufferView":7,"byteOffset":0},{"componentType":5126,"type":"VEC4","count":1572,"bufferView":8,"byteOffset":0},{"componentType":5126,"type":"VEC2","count":1572,"bufferView":9,"byteOffset":0}],"images":[{"name":"Bark_NormalTree_Normal.png","uri":"textures/92ec2beb16db08e5.png"},{"name":"Bark_NormalTree.png","uri":"textures/0f44db85650c8b13.png"},{"name":"Leaves_NormalTree_C.png","uri":"textures/8e4474241568d60f.png"}],"samplers":[{}],"textures":[{"name":"normalmap_texture","sampler":0,"source":0},{"name":"base_color_texture","sampler":0,"source":1},{"name":"base_color_texture","sampler":0,"source":2}],"materials":[{"name":"Bark_NormalTree","alphaMode":"OPAQUE","extras":{"fromFBX":{"shadingModel":"Phong","isTruePBR":false}},"normalTexture":{"index":0,"texCoord":0},"pbrMetallicRoughness":{"baseColorTexture":{"index":1,"texCoord":0},"baseColorFactor":[1.0,1.0,1.0,1.0],"metallicFactor":0.400000005960464,"roughnessFactor":1.0}},{"name":"Leaves_NormalTree","alphaMode":"BLEND","extras":{"fromFBX":{"shadingModel":"Phong","isTruePBR":false}},"pbrMetallicRoughness":{"baseColorTexture":{"index":2,"texCoord":0},"baseColorFactor":[1.0,1.0,1.0,1.0],"metallicFactor":0.400000005960464,"roughnessFactor":1.0}}],"meshes":[{"name":"CommonTree_4","primitives":[{"material":0,"mode":4,"attributes":{"COLOR_0":3,"NORMAL":2,"POSITION":1,"TEXCOORD_0":4},"indices":0},{"material":1,"mode":4,"attributes":{"COLOR_0":8,"NORMAL":7,"POSITION":6,"TEXCOORD_0":9},"indices":5}]}],"nodes":[{"name":"RootNode","translation":[0.0,0.0,0.0],"rotation":[0.0,0.0,0.0,1.0],"scale":[1.0,1.0,1.0],"children":[1]},{"name":"CommonTree_4","translation":[0.0,0.0,0.0],"rotation":[8.14603353660459e-08,0.0,0.0,1.0],"scale":[1.0,1.0,1.0],"mesh":0}]}