{"asset":{"generator":"FBX2glTF v0.9.7","version":"2.0"},"scene":0,"buffers":[{"uri":"tree_young.bin","byteLength":201252}],"bufferViews":[{"buffer":0,"byteLength":11292,"byteOffset":0,"target":34963},{"buffer":0,"byteLength":14340,"byteOffset":11292,"target":34962},{"buffer":0,"byteLength":14340,"byteOffset":25632,"target":34962},{"buffer":0,"byteLength":19120,"byteOffset":39972,"target":34962},{"buffer":0,"byteLength":9560,"byteOffset":59092,"target":34962},{"buffer":0,"byteLength":7800,"byteOffset":68652,"target":34963},{"buffer":0,"byteLength":31200,"byteOffset":76452,"target":34962},{"buffer":0,"byteLength":31200,"byteOffset":107652,"target":34962},{"buffer":0,"byteLength":41600,"byteOffset":138852,"target":34962},{"buffer":0,"byteLength":20800,"byteOffset":180452,"target":34962}],"scenes":[{"name":"Root Scene","nodes":[0]}],"accessors":[{"componentType":5123,"type":"SCALAR","count":5646,"bufferView":0,"byteOffset":0},{"componentType":5126,"type":"VEC3","count":1195,"bufferView":1,"byteOffset":0,"min":[-0.895722806453705,-0.242771998047829,-0.920511782169342],"max":[0.906301259994507,5.4537034034729,0.8049076795578]},{"componentType":5126,"type":"VEC3","count":1195,"bufferView":2,"byteOffset":0},{"componentType":5126,"type":"VEC4","count":1195,"bufferView":3,"byteOffset":0},{"componentType":5126,"type":"VEC2","count":1195,"bufferView":4,"byteOffset":0},{"componentType":5123,"type":"SCALAR","count":3900,"bufferView":5,"byteOffset":0},{"componentType":5126,"type":"VEC3","count":2600,"bufferView":6,"byteOffset":0,"min":[-1.91235458850861,2.35647368431091,-2.16244792938232],"max":[1.75881063938141,6.76346778869629,2.05720210075378]},{"componentType":5126,"type":"VEC3","count":2600,"bufferView":7,"byteOffset":0},{"componentType":5126,"type":"VEC4","count":2600,"bufferView":8,"byteOffset":0},{"componentType":5126,"type":"VEC2","count":2600,"bufferView":9,"byteOffset":0}],"images":[{"name":"Bark_NormalTree_Normal.png","uri":"textures/92ec2beb16db08e5.png"},{"name":"Bark_NormalTree.png","uri":"textures/0f44db85650c8b13.png"},{"name":"Leaves_NormalTree_C.png","uri":"textures/8e4474241568d60f.png"}],"samplers":[{}],"textures":[{"name":"normalmap_texture","sampler":0,"source":0},{"name":"base_color_texture","sampler":0,"source":1},{"name":"base_color_texture","sampler":0,"source":2}],"materials":[{"name":"Bark_NormalTree","alphaMode":"OPAQUE","extras":{"fromFBX":{"shadingModel":"Phong","isTruePBR":false}},"normalTexture":{"index":0,"texCoord":0},"pbrMetallicRoughness":{"baseColorTexture":{"index":1,"texCoord":0},"baseColorFactor":[1.0,1.0,1.0,1.0],"metallicFactor":0.400000005960464,"roughnessFactor":1.0}},{"name":"Leaves_NormalTree","alphaMode":"BLEND","extras":{"fromFBX":{"shadingModel":"Phong","isTruePBR":false}},"pbrMetallicRoughness":{"baseColorTexture":{"index":2,"texCoord":0},"baseColorFactor":[1.0,1.0,1.0,1.0],"metallicFactor":0.400000005960464,"roughnessFactor":1.0}}],"meshes":[{"name":"CommonTree_5","primitives":[{"material":0,"mode":4,"attributes":{"COLOR_0":3,"NORMAL":2,"POSITION":1,"TEXCOORD_0":4},"indices":0},{"material":1,"mode":4,"attributes":{"COLOR_0":8,"NORMAL":7,"POSITION":6,"TEXCOORD_0":9},"indices":5}]}],"nodes":[{"name":"RootNode","translation":[0.0,0.0,0.0],"rotation":[0.0,0.0,0.0,1.0],"scale":[1.0,1.0,1.0],"children":[1]},{"name":"CommonTree_5","translation":[0.0,0.0,0.0],"rotation":[8.14603353660459e-08,0.0,0.0,1.0],"scale":[1.0,1.0,1.0],"mesh":0}]}