{"asset":{"generator":"FBX2glTF v0.9.7","version":"2.0"},"scene":0,"buffers":[{"uri":"tree_round.bin","byteLength":356408}],"bufferViews":[{"buffer":0,"byteLength":26070,"byteOffset":0,"target":34963},{"buffer":0,"byteLength":33624,"byteOffset":26072,"target":34962},{"buffer":0,"byteLength":33624,"byteOffset":59696,"target":34962},{"buffer":0,"byteLength":44832,"byteOffset":93320,"target":34962},{"buffer":0,"byteLength":22416,"byteOffset":138152,"target":34962},{"buffer":0,"byteLength":11520,"byteOffset":160568,"target":34963},{"buffer":0,"byteLength":46080,"byteOffset":172088,"target":34962},{"buffer":0,"byteLength":46080,"byteOffset":218168,"target":34962},{"buffer":0,"byteLength":61440,"byteOffset":264248,"target":34962},{"buffer":0,"byteLength":30720,"byteOffset":325688,"target":34962}],"scenes":[{"name":"Root Scene","nodes":[0]}],"accessors":[{"componentType":5123,"type":"SCALAR","count":13035,"bufferView":0,"byteOffset":0},{"componentType":5126,"type":"VEC3","count":2802,"bufferView":1,"byteOffset":0,"min":[-1.35912656784058,-0.242771998047829,-1.12632048130035],"max":[1.26845633983612,6.48374843597412,1.35480272769928]},{"componentType":5126,"type":"VEC3","count":2802,"bufferView":2,"byteOffset":0},{"componentType":5126,"type":"VEC4","count":2802,"bufferView":3,"byteOffset":0},{"componentType":5126,"type":"VEC2","count":2802,"bufferView":4,"byteOffset":0},{"componentType":5123,"type":"SCALAR","count":5760,"bufferView":5,"byteOffset":0},{"componentType":5126,"type":"VEC3","count":3840,"bufferView":6,"byteOffset":0,"min":[-2.19445872306824,2.34661936759949,-2.22451901435852],"max":[2.11696410179138,7.02201271057129,2.35319471359253]},{"componentType":5126,"type":"VEC3","count":3840,"bufferView":7,"byteOffset":0},{"componentType":5126,"type":"VEC4","count":3840,"bufferView":8,"byteOffset":0},{"componentType":5126,"type":"VEC2","count":3840,"bufferView":9,"byteOffset":0}],"images":[{"name":"Bark_NormalTree_Normal.png","uri":"textures/92ec2beb16db08e5.png"},{"name":"Bark_NormalTree.png","uri":"textures/0f44db85650c8b13.png"},{"name":"Leaves_NormalTree_C.png","uri":"textures/8e4474241568d60f.png"}],"samplers":[{}],"textures":[{"name":"normalmap_texture","sampler":0,"source":0},{"name":"base_color_texture","sampler":0,"source":1},{"name":"base_color_texture","sampler":0,"source":2}],"materials":[{"name":"Bark_NormalTree","alphaMode":"OPAQUE","extras":{"fromFBX":{"shadingModel":"Phong","isTruePBR":false}},"normalTexture":{"index":0,"texCoord":0},"pbrMetallicRoughness":{"baseColorTexture":{"index":1,"texCoord":0},"baseColorFactor":[1.0,1.0,1.0,1.0],"metallicFactor":0.400000005960464,"roughnessFactor":1.0}},{"name":"Leaves_NormalTree","alphaMode":"BLEND","extras":{"fromFBX":{"shadingModel":"Phong","isTruePBR":false}},"pbrMetallicRoughness":{"baseColorTexture":{"index":2,"texCoord":0},"baseColorFactor":[1.0,1.0,1.0,1.0],"metallicFactor":0.400000005960464,"roughnessFactor":1.0}}],"meshes":[{"name":"CommonTree_1","primitives":[{"material":0,"mode":4,"attributes":{"COLOR_0":3,"NORMAL":2,"POSITION":1,"TEXCOORD_0":4},"indices":0},{"material":1,"mode":4,"attributes":{"COLOR_0":8,"NORMAL":7,"POSITION":6,"TEXCOORD_0":9},"indices":5}]}],"nodes":[{"name":"RootNode","translation":[0.0,0.0,0.0],"rotation":[0.0,0.0,0.0,1.0],"scale":[1.0,1.0,1.0],"children":[1]},{"name":"CommonTree_1","translation":[0.0,0.0,0.0],"rotation":[8.14603353660459e-08,0.0,0.0,1.0],"scale":[1.0,1.0,1.0],"mesh":0}]}