{"asset":{"generator":"FBX2glTF v0.9.7","version":"2.0"},"scene":0,"buffers":[{"uri":"tree_leaning.bin","byteLength":295872}],"bufferViews":[{"buffer":0,"byteLength":25860,"byteOffset":0,"target":34963},{"buffer":0,"byteLength":33384,"byteOffset":25860,"target":34962},{"buffer":0,"byteLength":33384,"byteOffset":59244,"target":34962},{"buffer":0,"byteLength":44512,"byteOffset":92628,"target":34962},{"buffer":0,"byteLength":22256,"byteOffset":137140,"target":34962},{"buffer":0,"byteLength":8028,"byteOffset":159396,"target":34963},{"buffer":0,"byteLength":32112,"byteOffset":167424,"target":34962},{"buffer":0,"byteLength":32112,"byteOffset":199536,"target":34962},{"buffer":0,"byteLength":42816,"byteOffset":231648,"target":34962},{"buffer":0,"byteLength":21408,"byteOffset":274464,"target":34962}],"scenes":[{"name":"Root Scene","nodes":[0]}],"accessors":[{"componentType":5123,"type":"SCALAR","count":12930,"bufferView":0,"byteOffset":0},{"componentType":5126,"type":"VEC3","count":2782,"bufferView":1,"byteOffset":0,"min":[-1.43102335929871,-0.242771998047829,-0.947254002094269],"max":[1.34512281417847,6.72736787796021,1.5685818195343]},{"componentType":5126,"type":"VEC3","count":2782,"bufferView":2,"byteOffset":0},{"componentType":5126,"type":"VEC4","count":2782,"bufferView":3,"byteOffset":0},{"componentType":5126,"type":"VEC2","count":2782,"bufferView":4,"byteOffset":0},{"componentType":5123,"type":"SCALAR","count":4014,"bufferView":5,"byteOffset":0},{"componentType":5126,"type":"VEC3","count":2676,"bufferView":6,"byteOffset":0,"min":[-2.22301363945007,2.8864061832428,-1.85146963596344],"max":[2.24128794670105,7.40022373199463,2.42438268661499]},{"componentType":5126,"type":"VEC3","count":2676,"bufferView":7,"byteOffset":0},{"componentType":5126,"type":"VEC4","count":2676,"bufferView":8,"byteOffset":0},{"componentType":5126,"type":"VEC2","count":2676,"bufferView":9,"byteOffset":0}],"images":[{"name":"Bark_NormalTree_Normal.png","uri":"textures/92ec2beb16db08e5.png"},{"name":"Bark_NormalTree.png","uri":"textures/0f44db85650c8b13.png"},{"name":"Leaves_NormalTree_C.png","uri":"textures/8e4474241568d60f.png"}],"samplers":[{}],"textures":[{"name":"normalmap_texture","sampler":0,"source":0},{"name":"base_color_texture","sampler":0,"source":1},{"name":"base_color_texture","sampler":0,"source":2}],"materials":[{"name":"Bark_NormalTree","alphaMode":"OPAQUE","extras":{"fromFBX":{"shadingModel":"Phong","isTruePBR":false}},"normalTexture":{"index":0,"texCoord":0},"pbrMetallicRoughness":{"baseColorTexture":{"index":1,"texCoord":0},"baseColorFactor":[1.0,1.0,1.0,1.0],"metallicFactor":0.400000005960464,"roughnessFactor":1.0}},{"name":"Leaves_NormalTree","alphaMode":"BLEND","extras":{"fromFBX":{"shadingModel":"Phong","isTruePBR":false}},"pbrMetallicRoughness":{"baseColorTexture":{"index":2,"texCoord":0},"baseColorFactor":[1.0,1.0,1.0,1.0],"metallicFactor":0.400000005960464,"roughnessFactor":1.0}}],"meshes":[{"name":"CommonTree_2","primitives":[{"material":0,"mode":4,"attributes":{"COLOR_0":3,"NORMAL":2,"POSITION":1,"TEXCOORD_0":4},"indices":0},{"material":1,"mode":4,"attributes":{"COLOR_0":8,"NORMAL":7,"POSITION":6,"TEXCOORD_0":9},"indices":5}]}],"nodes":[{"name":"RootNode","translation":[0.0,0.0,0.0],"rotation":[0.0,0.0,0.0,1.0],"scale":[1.0,1.0,1.0],"children":[1]},{"name":"CommonTree_2","translation":[0.0,0.0,0.0],"rotation":[8.14603353660459e-08,0.0,0.0,1.0],"scale":[1.0,1.0,1.0],"mesh":0}]}