{"asset":{"generator":"FBX2glTF v0.9.7","version":"2.0"},"scene":0,"buffers":[{"uri":"tree_oak.bin","byteLength":246824}],"bufferViews":[{"buffer":0,"byteLength":10230,"byteOffset":0,"target":34963},{"buffer":0,"byteLength":13248,"byteOffset":10232,"target":34962},{"buffer":0,"byteLength":13248,"byteOffset":23480,"target":34962},{"buffer":0,"byteLength":17664,"byteOffset":36728,"target":34962},{"buffer":0,"byteLength":8832,"byteOffset":54392,"target":34962},{"buffer":0,"byteLength":10800,"byteOffset":63224,"target":34963},{"buffer":0,"byteLength":43200,"byteOffset":74024,"target":34962},{"buffer":0,"byteLength":43200,"byteOffset":117224,"target":34962},{"buffer":0,"byteLength":57600,"byteOffset":160424,"target":34962},{"buffer":0,"byteLength":28800,"byteOffset":218024,"target":34962}],"scenes":[{"name":"Root Scene","nodes":[0]}],"accessors":[{"componentType":5123,"type":"SCALAR","count":5115,"bufferView":0,"byteOffset":0},{"componentType":5126,"type":"VEC3","count":1104,"bufferView":1,"byteOffset":0,"min":[-0.848488450050354,-0.242771998047829,-0.817329406738281],"max":[1.04293322563171,7.97797966003418,1.10272824764252]},{"componentType":5126,"type":"VEC3","count":1104,"bufferView":2,"byteOffset":0},{"componentType":5126,"type":"VEC4","count":1104,"bufferView":3,"byteOffset":0},{"componentType":5126,"type":"VEC2","count":1104,"bufferView":4,"byteOffset":0},{"componentType":5123,"type":"SCALAR","count":5400,"bufferView":5,"byteOffset":0},{"componentType":5126,"type":"VEC3","count":3600,"bufferView":6,"byteOffset":0,"min":[-1.98646509647369,2.57631635665894,-2.0609655380249],"max":[2.07638096809387,9.18241786956787,2.18011140823364]},{"componentType":5126,"type":"VEC3","count":3600,"bufferView":7,"byteOffset":0},{"componentType":5126,"type":"VEC4","count":3600,"bufferView":8,"byteOffset":0},{"componentType":5126,"type":"VEC2","count":3600,"bufferView":9,"byteOffset":0}],"images":[{"name":"Bark_NormalTree_Normal.png","uri":"textures/92ec2beb16db08e5.png"},{"name":"Bark_NormalTree.png","uri":"textures/0f44db85650c8b13.png"},{"name":"Leaves_NormalTree_C.png","uri":"textures/8e4474241568d60f.png"}],"samplers":[{}],"textures":[{"name":"normalmap_texture","sampler":0,"source":0},{"name":"base_color_texture","sampler":0,"source":1},{"name":"base_color_texture","sampler":0,"source":2}],"materials":[{"name":"Bark_NormalTree","alphaMode":"OPAQUE","extras":{"fromFBX":{"shadingModel":"Phong","isTruePBR":false}},"normalTexture":{"index":0,"texCoord":0},"pbrMetallicRoughness":{"baseColorTexture":{"index":1,"texCoord":0},"baseColorFactor":[1.0,1.0,1.0,1.0],"metallicFactor":0.400000005960464,"roughnessFactor":1.0}},{"name":"Leaves_NormalTree","alphaMode":"BLEND","extras":{"fromFBX":{"shadingModel":"Phong","isTruePBR":false}},"pbrMetallicRoughness":{"baseColorTexture":{"index":2,"texCoord":0},"baseColorFactor":[1.0,1.0,1.0,1.0],"metallicFactor":0.400000005960464,"roughnessFactor":1.0}}],"meshes":[{"name":"CommonTree_3","primitives":[{"material":0,"mode":4,"attributes":{"COLOR_0":3,"NORMAL":2,"POSITION":1,"TEXCOORD_0":4},"indices":0},{"material":1,"mode":4,"attributes":{"COLOR_0":8,"NORMAL":7,"POSITION":6,"TEXCOORD_0":9},"indices":5}]}],"nodes":[{"name":"RootNode","translation":[0.0,0.0,0.0],"rotation":[0.0,0.0,0.0,1.0],"scale":[1.0,1.0,1.0],"children":[1]},{"name":"CommonTree_3","translation":[0.0,0.0,0.0],"rotation":[8.14603353660459e-08,0.0,0.0,1.0],"scale":[1.0,1.0,1.0],"mesh":0}]}