{"asset":{"version":"2.0","generator":"racehorse scripts/bake_trees.py"},"scene":0,"scenes":[{"nodes":[0]}],"nodes":[{"name":"bush_green","mesh":0}],"meshes":[{"name":"bush_green","primitives":[{"attributes":{"POSITION":0,"NORMAL":1,"TEXCOORD_0":2,"COLOR_0":3},"indices":4,"material":0}]}],"materials":[{"name":"Leaves","doubleSided":true,"pbrMetallicRoughness":{"metallicFactor":0.0,"roughnessFactor":1.0}}],"buffers":[{"uri":"bush_green.bin","byteLength":47520}],"bufferViews":[{"buffer":0,"byteOffset":0,"byteLength":10560,"target":34962},{"buffer":0,"byteOffset":10560,"byteLength":10560,"target":34962},{"buffer":0,"byteOffset":21120,"byteLength":7040,"target":34962},{"buffer":0,"byteOffset":28160,"byteLength":14080,"target":34962},{"buffer":0,"byteOffset":42240,"byteLength":5280,"target":34963}],"accessors":[{"bufferView":0,"componentType":5126,"count":880,"type":"VEC3","min":[-1.0107421875,-0.36441200971603394,-0.9610242247581482],"max":[0.8324100971221924,1.1192760467529297,1.1197532415390015]},{"bufferView":1,"componentType":5126,"count":880,"type":"VEC3"},{"bufferView":2,"componentType":5126,"count":880,"type":"VEC2"},{"bufferView":3,"componentType":5126,"count":880,"type":"VEC4"},{"bufferView":4,"componentType":5125,"count":1320,"type":"SCALAR"}]}