{"asset":{"version":"2.0","generator":"racehorse scripts/bake_trees.py"},"scene":0,"scenes":[{"nodes":[0]}],"nodes":[{"name":"bush_flowers","mesh":0}],"meshes":[{"name":"bush_flowers","primitives":[{"attributes":{"POSITION":0,"NORMAL":1,"TEXCOORD_0":2,"COLOR_0":3},"indices":4,"material":0}]}],"materials":[{"name":"Leaves","doubleSided":true,"pbrMetallicRoughness":{"metallicFactor":0.0,"roughnessFactor":1.0}}],"buffers":[{"uri":"bush_flowers.bin","byteLength":47520}],"bufferViews":[{"buffer":0,"byteOffset":0,"byteLength":10560,"target":34962},{"buffer":0,"byteOffset":10560,"byteLength":10560,"target":34962},{"buffer":0,"byteOffset":21120,"byteLength":7040,"target":34962},{"buffer":0,"byteOffset":28160,"byteLength":14080,"target":34962},{"buffer":0,"byteOffset":42240,"byteLength":5280,"target":34963}],"accessors":[{"bufferView":0,"componentType":5126,"count":880,"type":"VEC3","min":[-1.1049323081970215,-0.5074880123138428,-0.9797794222831726],"max":[0.9395425319671631,1.212567925453186,1.1238172054290771]},{"bufferView":1,"componentType":5126,"count":880,"type":"VEC3"},{"bufferView":2,"componentType":5126,"count":880,"type":"VEC2"},{"bufferView":3,"componentType":5126,"count":880,"type":"VEC4"},{"bufferView":4,"componentType":5125,"count":1320,"type":"SCALAR"}]}