{"asset":{"version":"2.0","generator":"racehorse scripts/bake_trees.py"},"scene":0,"scenes":[{"nodes":[0]}],"nodes":[{"name":"tree_oak","mesh":0}],"meshes":[{"name":"tree_oak","primitives":[{"attributes":{"POSITION":0,"NORMAL":1,"TEXCOORD_0":2,"COLOR_0":3},"indices":4,"material":0},{"attributes":{"POSITION":5,"NORMAL":6,"TEXCOORD_0":7,"COLOR_0":8},"indices":9,"material":1}]}],"materials":[{"name":"Bark","doubleSided":false,"pbrMetallicRoughness":{"metallicFactor":0.0,"roughnessFactor":1.0}},{"name":"Leaves","doubleSided":true,"pbrMetallicRoughness":{"metallicFactor":0.0,"roughnessFactor":1.0}}],"buffers":[{"uri":"tree_oak.bin","byteLength":459360}],"bufferViews":[{"buffer":0,"byteOffset":0,"byteLength":54540,"target":34962},{"buffer":0,"byteOffset":54540,"byteLength":54540,"target":34962},{"buffer":0,"byteOffset":109080,"byteLength":36360,"target":34962},{"buffer":0,"byteOffset":145440,"byteLength":72720,"target":34962},{"buffer":0,"byteOffset":218160,"byteLength":77040,"target":34963},{"buffer":0,"byteOffset":295200,"byteLength":36480,"target":34962},{"buffer":0,"byteOffset":331680,"byteLength":36480,"target":34962},{"buffer":0,"byteOffset":368160,"byteLength":24320,"target":34962},{"buffer":0,"byteOffset":392480,"byteLength":48640,"target":34962},{"buffer":0,"byteOffset":441120,"byteLength":18240,"target":34963}],"accessors":[{"bufferView":0,"componentType":5126,"count":4545,"type":"VEC3","min":[-6.159023284912109,-0.06131439283490181,-6.128866195678711],"max":[5.916911602020264,12.368910789489746,6.430434226989746]},{"bufferView":1,"componentType":5126,"count":4545,"type":"VEC3"},{"bufferView":2,"componentType":5126,"count":4545,"type":"VEC2"},{"bufferView":3,"componentType":5126,"count":4545,"type":"VEC4"},{"bufferView":4,"componentType":5125,"count":19260,"type":"SCALAR"},{"bufferView":5,"componentType":5126,"count":3040,"type":"VEC3","min":[-7.107999324798584,4.036941051483154,-7.147522926330566],"max":[7.0146589279174805,13.108468055725098,7.200159549713135]},{"bufferView":6,"componentType":5126,"count":3040,"type":"VEC3"},{"bufferView":7,"componentType":5126,"count":3040,"type":"VEC2"},{"bufferView":8,"componentType":5126,"count":3040,"type":"VEC4"},{"bufferView":9,"componentType":5125,"count":4560,"type":"SCALAR"}]}