{"asset":{"version":"2.0","generator":"racehorse scripts/bake_trees.py"},"scene":0,"scenes":[{"nodes":[0]}],"nodes":[{"name":"tree_elm","mesh":0}],"meshes":[{"name":"tree_elm","primitives":[{"attributes":{"POSITION":0,"NORMAL":1,"TEXCOORD_0":2,"COLOR_0":3},"indices":4,"material":0},{"attributes":{"POSITION":5,"NORMAL":6,"TEXCOORD_0":7,"COLOR_0":8},"indices":9,"material":1}]}],"materials":[{"name":"Bark","doubleSided":false,"pbrMetallicRoughness":{"metallicFactor":0.0,"roughnessFactor":1.0}},{"name":"Leaves","doubleSided":true,"pbrMetallicRoughness":{"metallicFactor":0.0,"roughnessFactor":1.0}}],"buffers":[{"uri":"tree_elm.bin","byteLength":335856}],"bufferViews":[{"buffer":0,"byteOffset":0,"byteLength":31488,"target":34962},{"buffer":0,"byteOffset":31488,"byteLength":31488,"target":34962},{"buffer":0,"byteOffset":62976,"byteLength":20992,"target":34962},{"buffer":0,"byteOffset":83968,"byteLength":41984,"target":34962},{"buffer":0,"byteOffset":125952,"byteLength":45744,"target":34963},{"buffer":0,"byteOffset":171696,"byteLength":36480,"target":34962},{"buffer":0,"byteOffset":208176,"byteLength":36480,"target":34962},{"buffer":0,"byteOffset":244656,"byteLength":24320,"target":34962},{"buffer":0,"byteOffset":268976,"byteLength":48640,"target":34962},{"buffer":0,"byteOffset":317616,"byteLength":18240,"target":34963}],"accessors":[{"bufferView":0,"componentType":5126,"count":2624,"type":"VEC3","min":[-4.746230125427246,-0.04997305944561958,-4.742043495178223],"max":[4.431450843811035,14.683701515197754,4.571724891662598]},{"bufferView":1,"componentType":5126,"count":2624,"type":"VEC3"},{"bufferView":2,"componentType":5126,"count":2624,"type":"VEC2"},{"bufferView":3,"componentType":5126,"count":2624,"type":"VEC4"},{"bufferView":4,"componentType":5125,"count":11436,"type":"SCALAR"},{"bufferView":5,"componentType":5126,"count":3040,"type":"VEC3","min":[-5.8149027824401855,8.067150115966797,-5.749929904937744],"max":[5.519655227661133,15.710740089416504,5.878289222717285]},{"bufferView":6,"componentType":5126,"count":3040,"type":"VEC3"},{"bufferView":7,"componentType":5126,"count":3040,"type":"VEC2"},{"bufferView":8,"componentType":5126,"count":3040,"type":"VEC4"},{"bufferView":9,"componentType":5125,"count":4560,"type":"SCALAR"}]}