{"asset":{"version":"2.0","generator":"racehorse scripts/bake_trees.py"},"scene":0,"scenes":[{"nodes":[0]}],"nodes":[{"name":"tree_round","mesh":0}],"meshes":[{"name":"tree_round","primitives":[{"attributes":{"POSITION":0,"NORMAL":1,"TEXCOORD_0":2,"COLOR_0":3},"indices":4,"material":0},{"attributes":{"POSITION":5,"NORMAL":6,"TEXCOORD_0":7,"COLOR_0":8},"indices":9,"material":1}]}],"materials":[{"name":"Bark","doubleSided":false,"pbrMetallicRoughness":{"metallicFactor":0.0,"roughnessFactor":1.0}},{"name":"Leaves","doubleSided":true,"pbrMetallicRoughness":{"metallicFactor":0.0,"roughnessFactor":1.0}}],"buffers":[{"uri":"tree_round.bin","byteLength":230832}],"bufferViews":[{"buffer":0,"byteOffset":0,"byteLength":20316,"target":34962},{"buffer":0,"byteOffset":20316,"byteLength":20316,"target":34962},{"buffer":0,"byteOffset":40632,"byteLength":13544,"target":34962},{"buffer":0,"byteOffset":54176,"byteLength":27088,"target":34962},{"buffer":0,"byteOffset":81264,"byteLength":28608,"target":34963},{"buffer":0,"byteOffset":109872,"byteLength":26880,"target":34962},{"buffer":0,"byteOffset":136752,"byteLength":26880,"target":34962},{"buffer":0,"byteOffset":163632,"byteLength":17920,"target":34962},{"buffer":0,"byteOffset":181552,"byteLength":35840,"target":34962},{"buffer":0,"byteOffset":217392,"byteLength":13440,"target":34963}],"accessors":[{"bufferView":0,"componentType":5126,"count":1693,"type":"VEC3","min":[-4.480666160583496,-0.04407695680856705,-3.7914061546325684],"max":[4.0518927574157715,9.624025344848633,4.145666122436523]},{"bufferView":1,"componentType":5126,"count":1693,"type":"VEC3"},{"bufferView":2,"componentType":5126,"count":1693,"type":"VEC2"},{"bufferView":3,"componentType":5126,"count":1693,"type":"VEC4"},{"bufferView":4,"componentType":5125,"count":7152,"type":"SCALAR"},{"bufferView":5,"componentType":5126,"count":2240,"type":"VEC3","min":[-5.404233455657959,4.490046977996826,-4.614588737487793],"max":[4.84465217590332,10.559085845947266,5.37338924407959]},{"bufferView":6,"componentType":5126,"count":2240,"type":"VEC3"},{"bufferView":7,"componentType":5126,"count":2240,"type":"VEC2"},{"bufferView":8,"componentType":5126,"count":2240,"type":"VEC4"},{"bufferView":9,"componentType":5125,"count":3360,"type":"SCALAR"}]}