{"asset":{"version":"2.0","generator":"racehorse scripts/bake_trees.py"},"scene":0,"scenes":[{"nodes":[0]}],"nodes":[{"name":"tree_young","mesh":0}],"meshes":[{"name":"tree_young","primitives":[{"attributes":{"POSITION":0,"NORMAL":1,"TEXCOORD_0":2,"COLOR_0":3},"indices":4,"material":0},{"attributes":{"POSITION":5,"NORMAL":6,"TEXCOORD_0":7,"COLOR_0":8},"indices":9,"material":1}]}],"materials":[{"name":"Bark","doubleSided":false,"pbrMetallicRoughness":{"metallicFactor":0.0,"roughnessFactor":1.0}},{"name":"Leaves","doubleSided":true,"pbrMetallicRoughness":{"metallicFactor":0.0,"roughnessFactor":1.0}}],"buffers":[{"uri":"tree_young.bin","byteLength":104688}],"bufferViews":[{"buffer":0,"byteOffset":0,"byteLength":6624,"target":34962},{"buffer":0,"byteOffset":6624,"byteLength":6624,"target":34962},{"buffer":0,"byteOffset":13248,"byteLength":4416,"target":34962},{"buffer":0,"byteOffset":17664,"byteLength":8832,"target":34962},{"buffer":0,"byteOffset":26496,"byteLength":9072,"target":34963},{"buffer":0,"byteOffset":35568,"byteLength":15360,"target":34962},{"buffer":0,"byteOffset":50928,"byteLength":15360,"target":34962},{"buffer":0,"byteOffset":66288,"byteLength":10240,"target":34962},{"buffer":0,"byteOffset":76528,"byteLength":20480,"target":34962},{"buffer":0,"byteOffset":97008,"byteLength":7680,"target":34963}],"accessors":[{"bufferView":0,"componentType":5126,"count":552,"type":"VEC3","min":[-2.036663293838501,-0.009915047325193882,-1.7531081438064575],"max":[1.9801790714263916,6.549485206604004,1.7057033777236938]},{"bufferView":1,"componentType":5126,"count":552,"type":"VEC3"},{"bufferView":2,"componentType":5126,"count":552,"type":"VEC2"},{"bufferView":3,"componentType":5126,"count":552,"type":"VEC4"},{"bufferView":4,"componentType":5125,"count":2268,"type":"SCALAR"},{"bufferView":5,"componentType":5126,"count":1280,"type":"VEC3","min":[-2.7825264930725098,2.813250780105591,-2.6170477867126465],"max":[2.938518524169922,7.37345552444458,2.639604091644287]},{"bufferView":6,"componentType":5126,"count":1280,"type":"VEC3"},{"bufferView":7,"componentType":5126,"count":1280,"type":"VEC2"},{"bufferView":8,"componentType":5126,"count":1280,"type":"VEC4"},{"bufferView":9,"componentType":5125,"count":1920,"type":"SCALAR"}]}