{"asset":{"version":"2.0","generator":"racehorse scripts/bake_trees.py"},"scene":0,"scenes":[{"nodes":[0]}],"nodes":[{"name":"tuft_tall","mesh":0}],"meshes":[{"name":"tuft_tall","primitives":[{"attributes":{"POSITION":0,"NORMAL":1,"TEXCOORD_0":2,"COLOR_0":3},"indices":4,"material":0}]}],"materials":[{"name":"Grass","doubleSided":true,"pbrMetallicRoughness":{"metallicFactor":0.0,"roughnessFactor":1.0}}],"buffers":[{"uri":"tuft_tall.bin","byteLength":648}],"bufferViews":[{"buffer":0,"byteOffset":0,"byteLength":144,"target":34962},{"buffer":0,"byteOffset":144,"byteLength":144,"target":34962},{"buffer":0,"byteOffset":288,"byteLength":96,"target":34962},{"buffer":0,"byteOffset":384,"byteLength":192,"target":34962},{"buffer":0,"byteOffset":576,"byteLength":72,"target":34963}],"accessors":[{"bufferView":0,"componentType":5126,"count":12,"type":"VEC3","min":[-0.23883412778377533,-0.019999999552965164,-0.24377644062042236],"max":[0.23883412778377533,0.7300000190734863,0.24377644062042236]},{"bufferView":1,"componentType":5126,"count":12,"type":"VEC3"},{"bufferView":2,"componentType":5126,"count":12,"type":"VEC2"},{"bufferView":3,"componentType":5126,"count":12,"type":"VEC4"},{"bufferView":4,"componentType":5125,"count":18,"type":"SCALAR"}]}